<svg xmlns="http://www.w3.org/2000/svg" viewBox="0 0 64 64"><path fill-rule="evenodd" clip-rule="evenodd" d="M46.845 36.248h-.771c-13.248 0-26.497.001-39.744-.001-2.057 0-3.818-1.304-4.299-3.163-.502-1.939.391-3.954 2.244-4.8a5.4 5.4 0 012.171-.477c13.213-.027 26.426-.02 39.639-.02h.752c-.202-.209-.331-.349-.469-.481-3.485-3.349-6.98-6.686-10.45-10.046-2.377-2.303-1.344-6.15 1.886-7.038 1.629-.447 3.136-.135 4.341 1.01a6224.382 6224.382 0 0118.777 17.915c1.611 1.544 1.567 4.148-.057 5.793-.603.609-1.239 1.19-1.861 1.784-5.56 5.309-11.117 10.62-16.685 15.922-2.225 2.118-5.771 1.63-7.185-.974-.914-1.682-.585-3.657.866-5.048 3.441-3.293 6.892-6.579 10.338-9.868.143-.137.28-.281.507-.508z"/></svg>